#!OML:ASF F:\VICON\USERDATA\INSTALL\rory3\rory3.ASF
:FULLY-SPECIFIED
:DEGREES
2085
root -1.23023 15.7757 -3.71987 169.33 146.053 183.373
lowerback 21.4713 0.271936 -2.12109
upperback 11.9732 0.355217 1.51079
thorax 1.02787 0.170035 2.74585
lowerneck -19.6493 0.472519 -8.63737
upperneck 31.559 2.75186 3.79587
head 13.8556 0.7616 3.51453
rclavicle 4.65156e-014 -3.10104e-014
rhumerus -28.2315 13.1105 -83.8207
rradius 82.4043
rwrist 24.7622
rhand -29.7453 11.2164
rfingers 7.12502
rthumb -3.07145 -18.7412
lclavicle 4.65156e-014 -3.10104e-014
lhumerus -20.7769 -6.36391 81.7349
lradius 80.6081
lwrist -16.2334
lhand -38.4244 12.3689
lfingers 7.12502
lthumb -11.4486 42.0363
rfemur -52.8555 -29.5378 16.3621
rtibia 99.682
rfoot 1.77268 -3.64912
rtoes 4.74329
lfemur -87.0981 48.0252 -34.0086
ltibia 135.8
lfoot -5.42834 -18.7718
ltoes -17.2592
2086
root -1.23056 15.7755 -3.71842 169.303 146.116 183.345
lowerback 21.4927 0.247364 -2.08381
upperback 11.9652 0.329023 1.52487
thorax 1.00992 0.158168 2.74493
lowerneck -19.6505 0.459021 -8.69807
upperneck 31.5572 2.74 3.83414
head 13.8544 0.754377 3.53832
rclavicle -2.62396e-014 -2.46493e-014
rhumerus -28.2087 13.1642 -83.846
rradius 82.4192
rwrist 24.7813
rhand -29.8701 11.2713
rfingers 7.12502
rthumb -3.19201 -18.6845
lclavicle -2.62396e-014 -2.46493e-014
lhumerus -20.7005 -6.34536 81.7515
lradius 80.551
lwrist -16.2917
lhand -38.2828 12.5389
lfingers 7.12502
lthumb -11.312 42.2138
rfemur -52.8463 -29.4757 16.3921
rtibia 99.6073
rfoot 1.96317 -3.75798
rtoes 4.46239
lfemur -87.0693 48.02 -33.8979
ltibia 135.782
lfoot -5.37163 -18.8281
ltoes -17.2588
2087
root -1.23044 15.7769 -3.71919 169.322 146.156 183.36
lowerback 21.4826 0.241107 -2.03308
upperback 11.9529 0.328997 1.5181
thorax 1.00101 0.160842 2.70876
lowerneck -19.5955 0.427461 -8.60526
upperneck 31.5449 2.67452 3.77606
head 13.8451 0.729669 3.48655
rclavicle 3.02153e-014 -2.54444e-014
rhumerus -28.1856 13.1409 -83.84
rradius 82.3871
rwrist 24.8118
rhand -29.9304 11.1287
rfingers 7.12502
rthumb -3.25029 -18.8263
lclavicle 3.02153e-014 -2.54444e-014
lhumerus -20.6174 -6.4514 81.7534
lradius 80.4991
lwrist -16.2123
lhand -38.0353 12.3399
lfingers 7.12502
lthumb -11.0733 42.0278
rfemur -52.8696 -29.4372 16.3899
rtibia 99.5662
rfoot 2.07719 -3.77608
rtoes 4.31904
lfemur -87.0662 47.9183 -33.9245
ltibia 135.749
lfoot -5.41219 -18.7529
ltoes -17.4492
2088
root -1.2306 15.778 -3.71846 169.332 146.225 183.375
lowerback 21.4425 0.264571 -1.99556
upperback 11.9615 0.365903 1.50634
thorax 1.02762 0.181111 2.66748
lowerneck -19.4984 0.377238 -8.49643
upperneck 31.4551 2.55721 3.75184
head 13.7961 0.69169 3.43314
rclavicle 9.10434e-014 -4.85035e-014
rhumerus -28.1249 13.0507 -83.8504
rradius 82.3135
rwrist 24.8152
rhand -30.0643 10.8497
rfingers 7.12502
rthumb -3.37955 -19.1033
lclavicle 9.10434e-014 -4.85035e-014
lhumerus -20.5857 -6.63479 81.7163
lradius 80.5165
lwrist -16.1059
lhand -37.8463 12.022
lfingers 7.12502
lthumb -10.8911 41.7195
rfemur -52.8729 -29.3464 16.3858
rtibia 99.521
rfoot 2.07025 -3.82442
rtoes 4.56944
lfemur -87.0417 47.8381 -33.905
ltibia 135.731
lfoot -5.44714 -18.7027
ltoes -17.52
2089
root -1.23045 15.7778 -3.7165 169.314 146.293 183.41
lowerback 21.462 0.279905 -2.02821
upperback 11.9572 0.379072 1.50872
thorax 1.01266 0.185992 2.68593
lowerneck -19.4529 0.308346 -8.50675
upperneck 31.4045 2.44279 3.78247
head 13.7727 0.64671 3.42548
rclavicle 2.34566e-014 -2.38542e-014
rhumerus -28.1293 13.06 -83.8648
rradius 82.2909
rwrist 24.8053
rhand -30.1683 10.6831
rfingers 7.12502
rthumb -3.47999 -19.2682
lclavicle 2.34566e-014 -2.38542e-014
lhumerus -20.5603 -6.65357 81.7474
lradius 80.4786
lwrist -16.1037
lhand -37.7849 11.7044
lfingers 7.12502
lthumb -10.8318 41.4051
rfemur -52.8136 -29.2554 16.3394
rtibia 99.4863
rfoot 2.05601 -3.82044
rtoes 4.95825
lfemur -86.9199 47.7645 -33.8171
ltibia 135.721
lfoot -5.48229 -18.6591
ltoes -17.5685
2090
root -1.22837 15.775 -3.71523 169.352 146.361 183.481
lowerback 21.4392 0.270424 -2.09295
upperback 11.9507 0.354234 1.50599
thorax 1.01868 0.169773 2.72473
lowerneck -19.4516 0.288401 -8.47357
upperneck 31.3932 2.42749 3.70379
head 13.7714 0.633003 3.38508
rclavicle 1.78906e-014 1.35174e-014
rhumerus -28.1501 13.1306 -83.8892
rradius 82.3201
rwrist 24.8359
rhand -30.1803 10.8178
rfingers 7.12502
rthumb -3.49159 -19.1334
lclavicle 1.78906e-014 1.35174e-014
lhumerus -20.538 -6.58028 81.7853
lradius 80.4489
lwrist -16.1495
lhand -37.835 11.7855
lfingers 7.12502
lthumb -10.8801 41.4836
rfemur -52.8371 -29.2243 16.2936
rtibia 99.5035
rfoot 2.07856 -3.77789
rtoes 4.92417
lfemur -86.8363 47.6365 -33.8045
ltibia 135.725
lfoot -5.56071 -18.5513
ltoes -17.8245
2091
root -1.22846 15.7735 -3.71514 169.381 146.387 183.518
lowerback 21.4125 0.237148 -2.17732
upperback 11.9472 0.296069 1.53378
thorax 1.0324 0.134646 2.81402
lowerneck -19.4613 0.319769 -8.43376
upperneck 31.396 2.4929 3.60526
head 13.7727 0.651756 3.34955
rclavicle -9.54166e-015 2.8625e-014
rhumerus -28.1021 13.2377 -83.9006
rradius 82.3253
rwrist 24.8061
rhand -30.1807 10.9595
rfingers 7.12502
rthumb -3.49198 -18.9917
lclavicle -9.54166e-015 2.8625e-014
lhumerus -20.5852 -6.46997 81.8369
lradius 80.5066
lwrist -16.1624
lhand -37.8478 11.8559
lfingers 7.12502
lthumb -10.8925 41.5534
rfemur -52.8703 -29.2088 16.2804
rtibia 99.5157
rfoot 2.09362 -3.7414
rtoes 4.64156
lfemur -86.7351 47.4788 -33.6901
ltibia 135.761
lfoot -5.52124 -18.5515
ltoes -17.5226
2092
root -1.22973 15.7742 -3.71445 169.384 146.439 183.497
lowerback 21.3566 0.225226 -2.21682
upperback 11.9642 0.275123 1.59229
thorax 1.08059 0.118877 2.90332
lowerneck -19.5007 0.321947 -8.53789
upperneck 31.3672 2.52668 3.62908
head 13.7646 0.657619 3.38209
rclavicle 3.02153e-014 -7.15625e-015
rhumerus -27.9621 13.3526 -83.8101
rradius 82.263
rwrist 24.7937
rhand -30.154 10.8893
rfingers 7.12502
rthumb -3.46617 -19.0623
lclavicle 3.02153e-014 -7.15625e-015
lhumerus -20.5054 -6.33514 81.9547
lradius 80.4514
lwrist -16.1574
lhand -37.665 11.4602
lfingers 7.12502
lthumb -10.7161 41.1669
rfemur -52.8778 -29.1244 16.3193
rtibia 99.5161
rfoot 2.05551 -3.7474
rtoes 4.69931
lfemur -86.6538 47.3938 -33.534
ltibia 135.792
lfoot -5.52422 -18.624
ltoes -17.1233
2093
root -1.23148 15.7757 -3.71176 169.367 146.527 183.465
lowerback 21.3013 0.244609 -2.23181
upperback 11.982 0.298621 1.63201
thorax 1.12621 0.127371 2.94973
lowerneck -19.6101 0.282585 -8.69013
upperneck 31.4572 2.4841 3.78346
head 13.8254 0.639279 3.46923
rclavicle -4.85035e-014 2.3059e-014
rhumerus -27.8474 13.4174 -83.7395
rradius 82.2223
rwrist 24.7093
rhand -30.1009 10.893
rfingers 7.12502
rthumb -3.41486 -19.0594
lclavicle -4.85035e-014 2.3059e-014
lhumerus -20.4119 -6.32387 82.0456
lradius 80.3965
lwrist -16.1471
lhand -37.6069 11.3693
lfingers 7.12502
lthumb -10.6601 41.0789
rfemur -52.8527 -28.9623 16.38
rtibia 99.5586
rfoot 1.95371 -3.74213
rtoes 4.74886
lfemur -86.5587 47.3546 -33.4085
ltibia 135.811
lfoot -5.68373 -18.5809
ltoes -17.1871
2094
root -1.23196 15.7694 -3.70844 169.29 146.597 183.408
lowerback 21.3519 0.254446 -2.18328
upperback 11.9598 0.31794 1.62701
thorax 1.07493 0.14029 2.91287
lowerneck -19.5641 0.240416 -8.69667
upperneck 31.4916 2.379 3.90599
head 13.8354 0.609455 3.50299
rclavicle 6.44062e-014 -2.14687e-014
rhumerus -27.8638 13.3721 -83.7915
rradius 82.24
rwrist 24.5689
rhand -30.0217 10.9589
rfingers 7.12502
rthumb -3.33838 -18.9947
lclavicle 6.44062e-014 -2.14687e-014
lhumerus -20.4069 -6.42419 82.0515
lradius 80.3944
lwrist -16.1366
lhand -37.7109 11.452
lfingers 7.12502
lthumb -10.7604 41.1564
rfemur -52.8127 -28.8288 16.446
rtibia 99.643
rfoot 1.83226 -3.75874
rtoes 4.74357
lfemur -86.4605 47.3009 -33.1671
ltibia 135.902
lfoot -5.71557 -18.5696
ltoes -17.0305
2095
root -1.22167 15.7171 -3.69291 169.321 146.637 183.403
lowerback 21.2962 0.246737 -2.16879
upperback 11.9398 0.309478 1.62005
thorax 1.08075 0.136435 2.89865
lowerneck -19.5071 0.21346 -8.61097
upperneck 31.489 2.31494 3.87097
head 13.8287 0.587335 3.46233
rclavicle -1.23246e-014 -3.18055e-015
rhumerus -27.8733 13.3273 -83.8469
rradius 82.2934
rwrist 24.5054
rhand -29.9277 10.9288
rfingers 7.12502
rthumb -3.24767 -19.0262
lclavicle -1.23246e-014 -3.18055e-015
lhumerus -20.3856 -6.47783 82.0729
lradius 80.3798
lwrist -16.1938
lhand -37.7637 11.5794
lfingers 7.12502
lthumb -10.8113 41.2811
rfemur -53.1516 -28.8606 16.4687
rtibia 100.027
rfoot 1.77323 -3.67026
rtoes 4.78669
lfemur -86.8723 47.1448 -33.0908
ltibia 136.33
lfoot -5.64654 -18.5683
ltoes -16.8
